<svg xmlns="http://www.w3.org/2000/svg" viewBox="0 0 512 512"><path fill="#171717" stroke="#fff" stroke-linecap="round" stroke-linejoin="round" stroke-width="80" d="M1949 5108c-9-7-24-26-32-43-11-21-28-33-63-45-44-13-51-20-73-67-20-42-32-55-62-67-119-48-71-166 55-136 64 15 106 4 106-29 0-34-27-45-103-43-51 2-89-3-131-18-84-29-121-26-163 10-46 41-66 38-122-20-35-36-56-50-77-51-66-1-96-21-109-72-17-66-44-91-164-149-168-83-211-145-177-256 10-31 20-65 22-74 4-12-6-23-35-37-125-64-105-155 33-152 74 2 74 2 81-27 6-28 9-29 88-38 74-8 82-11 85-31s6-21 24-12c11 6 54 13 95 16 64 5 83 11 126 40 59 40 100 51 122 33 14-11 14-15-2-33-36-40-151-106-242-138-133-46-184-99-165-173 6-25 4-26-32-26-60 0-67-9-59-69 6-46 9-51 32-51 64 0 122-54 138-130 21-101 118-142 240-104 51 17 52 16 116-12 292-129 490-335 571-594 34-109 34-363-1-495-13-49-26-93-30-98-4-4-32 27-62 68-29 41-58 75-64 75-5 0-37-46-69-102l-59-102-57 61c-79 83-104 138-98 214 2 32 2 59 0 59-3 0-35-25-73-55-74-60-110-102-132-154l-14-33-36 43c-20 24-44 55-55 68l-19 24-59-101c-32-56-62-102-66-102s-14 16-22 35c-43 102-212 222-395 280l-23 7 25-44c72-124 89-303 43-442-14-42-26-79-26-81 0-3 771-5 1714-5h1713l7 88c12 156 49 255 123 323 23 21 39 39 35 39-78-3-301-78-354-120l-37-30-46 85c-25 47-51 85-58 85-6 0-35-23-63-51l-52-51-103 71c-57 39-106 68-110 64-4-5-26-54-49-111-24-56-46-105-51-107-4-3-45 67-91 155s-87 158-93 157c-5-2-38-52-71-111-85-148-71-145-167-41-46 49-88 86-93 82-6-3-37-49-69-102-31-52-61-98-66-101-5-2-27 32-50 78l-41 82-42-45c-22-24-64-71-92-104l-51-59-12 52c-41 191 23 383 180 541 70 71 276 224 464 346 83 53 168 109 190 124 69 45 151 135 185 200 27 55 34 62 53 56 71-21 112-27 197-28 101-1 124 6 172 51 41 38 44 71 13 141-35 78-30 92 32 85 35-4 58 0 83 13 34 18 35 20 35 79 1 108 66 174 172 174 93 0 124 54 53 90-45 23-50 42-20 80 62 79-26 154-135 115-22-8-41-15-41-15-1 0-5 15-8 34-10 50-60 113-111 138l-45 22 20 21c73 78 19 192-86 182l-42-4-4 49c-8 82-69 138-150 138-31 0-39 4-43 23-3 12-16 73-30 135-36 164-40 170-150 203-38 11-84 32-102 45-39 30-39 30-84-2-37-25-38-25-84-10-54 19-104 10-140-24l-23-21-25 24c-36 37-79 45-183 34-80-9-102-8-185 11-204 47-299 7-299-126 0-46-11-61-71-95-33-19-52-39-66-68l-20-42-36 37c-28 28-37 45-37 71 0 36 4 42 60 78 41 26 60 60 63 113l2 38-110 48c-121 54-181 67-206 46m289-1772c100-51 96-40 96-237 1-286-26-386-110-402-90-17-240 134-336 340l-41 86 34 29c42 34 98 51 144 42l35-6v92h100v40c0 48 11 50 78 16m1221-21 24-24-32-50c-62-96-220-221-281-221-72 0-115 58-107 144 7 78 19 86 119 86 95 0 134 15 172 64 32 43 62 43 105 1m-1709-5c25-25 25-65 0-134-32-84-37-85-127-31-106 63-115 71-111 92 3 15 15 19 67 21 53 3 64 6 68 23 5 19 46 48 71 49 6 0 21-9 32-20m933-154c50-25 65-28 112-22 67 8 67 6 19-94-105-221-217-288-301-180-25 31-66 292-50 317 14 22 162 8 220-21M796 1473c23-165 104-403 190-560l45-83h66c63 0 65 1 59 23-37 127-49 211-50 348l-1 145-40 87-40 86-118 1H789zm274 40c0-5 17-39 38-78l37-70 110-12c61-6 160-12 221-12l112-1 41 86c22 47 41 88 41 90s-135 4-300 4-300-3-300-7m604-87c-24-51-44-101-44-111 0-53 214-416 323-547l22-27 240-6c210-6 496 10 510 28 1 1 37 73 80 159 42 87 108 205 146 263s69 109 69 112-30 54-67 114l-66 109H1719zm1268 86c2-5 28-50 58-101 55-92 55-93 90-87 74 11 403 28 461 24l61-4 44 88 44 88h-381c-209 0-379-4-377-8m750-98-53-105 12-110c6-60 10-180 7-266l-4-156 81-38c134-65 132-65 198 34 137 206 276 569 277 725v22h-465zM1095 738c235-330 551-555 945-672 62-18 63-20-48 64-46 34-129 110-185 168-56 57-111 114-122 124-11 11-69 49-129 84-118 69-215 140-313 228-60 55-62 56-123 56h-62zm2482-43c-96-88-185-148-324-216-103-51-144-76-149-92-13-46-96-167-173-253-43-49-78-90-76-92 6-6 188 47 266 77 237 92 439 229 627 425 85 90 101 116 68 116-6 0-49 18-95 40-45 22-86 40-89 40-4-1-29-21-55-45m-987 8c-77-10-172-12-360-8l-256 5-39-52c-22-29-75-90-119-135l-78-82 67-76c70-78 179-174 305-268 92-69 146-80 380-81 257-1 258-1 366 109 86 88 194 233 208 282 6 19-4 29-68 72-85 58-176 139-226 205-39 51-30 49-180 29" paint-order="stroke" transform="matrix(.1 0 0 -.1 0 512)"/></svg>